<?xml version="1.0" encoding="UTF-8"?>
<svg width="456px" height="286px" viewBox="0 0 456 286" version="1.1" xmlns="http://www.w3.org/2000/svg" xmlns:xlink="http://www.w3.org/1999/xlink">
    <!-- Generator: Sketch 57.1 (83088) - https://sketch.com -->
    <title>Logotype</title>
    <desc>Created with Sketch.</desc>
    <defs>
        <rect id="path-1" x="0" y="0" width="238" height="148"></rect>
    </defs>
    <g id="Page-1" stroke="none" stroke-width="1" fill="none" fill-rule="evenodd">
        <g id="geek-beer-logotype" transform="translate(-12.000000, 0.000000)">
            <g id="Logotype" transform="translate(9.000000, 0.000000)">
                <g id="Group" transform="translate(117.000000, 0.000000)">
                    <mask id="mask-2" fill="white">
                        <use xlink:href="#path-1"></use>
                    </mask>
                    <g id="Rectangle"></g>
                    <circle id="ring-4" fill="#F6A713" mask="url(#mask-2)" cx="119" cy="119" r="119"></circle>
                    <circle id="ring-3" fill="#FFE38A" mask="url(#mask-2)" cx="119" cy="119" r="104"></circle>
                    <circle id="ring-2" fill="#09233B" mask="url(#mask-2)" cx="119" cy="119" r="89"></circle>
                    <circle id="ring-1" fill="#FFFFFF" mask="url(#mask-2)" cx="119" cy="119" r="74"></circle>
                    <path d="M133.173828,40.4150391 L92.5410156,81.1914063 L97.7324219,86.7363281 C83.8848952,109.534505 83.8848952,127.05957 97.7324219,139.311523 C111.579949,151.563477 126.052279,150.422201 141.149414,135.887695 L147.451317,143.486377 L194.291992,96.6835938 L174.759766,55.4912109 L133.173828,40.4150391 Z" id="Path" fill="#09233B" mask="url(#mask-2)"></path>
                    <path d="M123.02036,112.233789 L156.758348,112.233789 L156.758348,114.930713 C156.758348,121.064923 156.03565,126.49397 154.590232,131.218017 C153.180069,135.589524 150.800454,139.678936 147.451317,143.486377 C139.871689,152.017864 130.229842,156.283544 118.525487,156.283544 C107.103164,156.283544 97.3203032,152.158879 89.1766102,143.909423 C81.0329172,135.624714 76.9611318,125.683212 76.9611318,114.084619 C76.9611318,102.239248 81.1034244,92.1919849 89.3881336,83.9425296 C97.6728429,75.6578204 107.755359,71.5155279 119.635985,71.5155279 C126.016974,71.5155279 131.974824,72.8199093 137.509715,75.4287114 C142.797827,78.0375135 147.997726,82.2679399 153.109568,88.1201175 L144.331346,96.528174 C137.63307,87.6088913 129.471873,83.1493168 119.847508,83.1493168 C111.210258,83.1493168 103.965653,86.128242 98.1134753,92.0861819 C92.2612977,97.9383595 89.3352528,105.271099 89.3352528,114.084619 C89.3352528,123.180172 92.5962065,130.671552 99.1182116,136.558984 C105.217168,142.023367 111.827209,144.755517 118.948534,144.755517 C125.012236,144.755517 130.45891,142.710811 135.288719,138.621338 C140.118528,134.49661 142.815425,129.561112 143.37949,123.814697 L123.02036,123.814697 L123.02036,112.233789 Z" id="G" fill="#FFFFFF" fill-rule="nonzero" mask="url(#mask-2)"></path>
                </g>
                <text id="GEEK-BEER" font-family="Futura-Bold, Futura" font-size="86" font-weight="bold" letter-spacing="-4.182727" fill="#F6A713">
                    <tspan x="3" y="223">GEEK BEE</tspan>
                    <tspan x="398.162184" y="223" letter-spacing="-4.13465">R</tspan>
                </text>
                <text id="GEEK-BEER-Copy" font-family="Futura-Bold, Futura" font-size="86" font-weight="bold" letter-spacing="-4.182727" fill="#FCF4DB">
                    <tspan x="1" y="222">GEEK BEE</tspan>
                    <tspan x="396.162184" y="222" letter-spacing="-4.13465">R</tspan>
                </text>
                <text id="GEEK-BEER-Copy-2" font-family="Futura-Bold, Futura" font-size="86" font-weight="bold" letter-spacing="-4.182727" fill="#09233B">
                    <tspan x="0" y="221">GEEK BEE</tspan>
                    <tspan x="395.162184" y="221" letter-spacing="-4.13465">R</tspan>
                </text>
                <text id="Ett-tech-meetup-Copy-3" font-family="CornerStoreJF" font-size="46" font-weight="normal" fill="#F6A713">
                    <tspan x="92" y="274">Ett tech meetup</tspan>
                </text>
            </g>
        </g>
    </g>
</svg>